<?xml version="1.0" standalone="no"?>
<!DOCTYPE svg PUBLIC "-//W3C//DTD SVG 20010904//EN"
 "http://www.w3.org/TR/2001/REC-SVG-20010904/DTD/svg10.dtd">
<svg version="1.0" xmlns="http://www.w3.org/2000/svg"
 width="1936.000000pt" height="1936.000000pt" viewBox="0 0 1936.000000 1936.000000"
 preserveAspectRatio="xMidYMid meet">
<metadata>
Created by potrace 1.14, written by Peter Selinger 2001-2017
</metadata>
<g transform="translate(0.000000,1936.000000) scale(0.100000,-0.100000)"
fill="#000000" stroke="none">
<path d="M1835 12700 c-3 -5 -1 -10 4 -10 6 0 11 5 11 10 0 6 -2 10 -4 10 -3
0 -8 -4 -11 -10z"/>
<path d="M1715 12639 c-55 -28 -102 -54 -105 -58 -3 -3 -21 -15 -40 -25 -94
-51 -351 -230 -416 -291 -6 -5 -47 -41 -89 -80 -176 -158 -285 -278 -431 -475
-46 -63 -88 -120 -93 -125 -22 -29 -171 -289 -200 -350 -18 -38 -37 -77 -42
-85 -5 -8 -12 -22 -15 -30 -3 -8 -10 -24 -14 -35 -34 -83 -82 -210 -98 -260
-27 -81 -53 -171 -57 -192 -2 -10 -4 -19 -5 -20 -3 -3 -2 -2 -15 -58 -10 -49
-12 -54 -15 -57 -1 -2 -4 -12 -5 -23 -3 -24 -13 -80 -20 -115 -2 -13 -7 -42
-10 -65 -3 -22 -8 -51 -10 -65 -20 -105 -27 -597 -11 -725 8 -64 46 -310 52
-335 23 -101 78 -305 94 -345 6 -16 11 -31 11 -33 -1 -1 6 -18 14 -38 8 -20
15 -42 15 -48 0 -7 5 -17 12 -24 7 -7 9 -12 6 -12 -8 0 64 -165 117 -271 19
-38 35 -72 36 -76 0 -5 6 -15 13 -23 8 -8 24 -35 37 -60 14 -25 46 -78 72
-118 26 -40 47 -75 47 -77 0 -3 6 -13 14 -22 8 -10 45 -59 83 -109 102 -138
153 -196 307 -349 260 -258 509 -437 831 -595 88 -43 198 -93 245 -110 47 -18
94 -36 105 -40 26 -11 200 -64 200 -61 0 1 14 -3 30 -9 17 -6 48 -15 70 -20
22 -5 51 -11 65 -14 63 -14 163 -33 220 -41 19 -3 51 -7 70 -10 197 -27 640
-27 820 0 64 10 172 29 235 41 17 3 39 7 50 9 60 9 105 17 150 25 75 14 106
20 145 26 19 2 46 7 60 10 43 8 64 11 111 18 52 8 56 8 192 31 54 9 113 18
130 20 18 2 48 7 67 10 19 3 53 8 75 10 22 3 51 7 65 9 14 3 45 8 70 11 25 3
63 8 85 12 22 3 51 7 65 9 14 1 45 5 70 8 25 4 63 9 85 11 22 3 56 7 75 10 19
3 53 7 75 9 22 3 58 8 80 10 121 16 167 21 260 31 39 4 81 8 95 10 14 1 57 6
95 10 39 3 81 8 95 10 28 5 125 14 209 20 31 3 79 7 106 9 28 3 79 7 115 10
36 3 90 8 120 11 30 3 91 8 135 10 44 3 107 8 140 10 127 9 294 19 510 30 703
37 1673 37 2330 1 50 -3 137 -8 195 -11 58 -2 137 -7 175 -10 39 -4 97 -8 130
-11 223 -16 405 -32 475 -40 25 -3 61 -7 80 -9 19 -2 62 -6 95 -9 33 -3 76 -8
95 -11 19 -3 55 -7 80 -10 25 -2 65 -7 90 -10 25 -3 61 -8 80 -10 19 -2 51 -7
70 -9 19 -3 55 -8 80 -11 25 -3 55 -7 67 -9 12 -3 48 -7 80 -11 32 -3 65 -8
73 -10 8 -2 35 -6 60 -9 25 -3 56 -8 70 -10 28 -5 149 -24 195 -31 35 -5 176
-30 255 -45 30 -6 66 -12 80 -15 14 -2 36 -7 50 -10 14 -3 40 -7 58 -10 18 -2
36 -6 40 -9 4 -2 29 -7 56 -10 27 -4 53 -9 57 -11 4 -3 24 -7 45 -10 22 -4 47
-8 56 -11 16 -5 36 -9 88 -19 14 -3 36 -7 50 -10 40 -9 64 -15 85 -19 11 -2
59 -13 106 -25 153 -37 128 -23 -71 40 -69 22 -136 42 -150 45 -35 8 -43 10
-60 16 -25 9 -123 38 -145 42 -11 2 -69 18 -130 34 -153 42 -533 133 -615 148
-14 3 -41 9 -60 14 -19 5 -52 11 -74 14 -21 4 -41 8 -45 10 -3 2 -22 7 -41 10
-19 3 -60 10 -90 16 -30 6 -66 13 -80 16 -14 2 -38 7 -55 11 -16 3 -41 8 -55
10 -14 2 -34 5 -45 8 -11 2 -36 6 -55 10 -19 3 -55 10 -80 15 -25 5 -67 12
-95 16 -27 4 -54 8 -60 10 -13 2 -67 11 -130 20 -27 3 -59 8 -70 10 -11 3 -36
7 -55 9 -19 3 -51 8 -70 11 -19 4 -53 8 -75 9 -22 2 -53 6 -70 9 -58 10 -99
16 -250 32 -27 3 -61 7 -75 9 -14 3 -50 7 -80 10 -30 3 -73 8 -95 10 -22 2
-71 7 -110 11 -38 3 -83 8 -100 9 -30 3 -139 12 -250 20 -218 16 -262 19 -550
32 -206 9 -995 8 -1185 -1 -366 -18 -547 -30 -630 -41 -23 -3 -30 -2 -20 4 8
5 37 12 64 15 27 4 53 9 57 12 4 2 29 7 56 10 26 3 55 7 63 9 8 2 33 6 55 9
22 3 58 8 80 11 22 4 56 8 75 10 38 4 130 15 170 20 27 3 144 14 225 21 103 9
255 18 485 30 143 8 1120 11 1120 4 0 -3 44 -5 98 -6 129 -1 370 -12 617 -29
50 -3 119 -8 155 -10 81 -5 188 -13 260 -21 30 -3 80 -7 110 -9 51 -4 134 -12
205 -20 17 -2 66 -7 110 -10 44 -4 91 -9 105 -11 14 -1 45 -5 70 -8 25 -3 70
-8 100 -11 51 -5 103 -11 175 -20 17 -2 53 -7 80 -10 28 -3 64 -8 80 -10 17
-2 53 -7 80 -10 28 -3 66 -8 85 -11 19 -3 53 -7 75 -9 22 -3 51 -7 65 -10 14
-3 48 -8 75 -11 28 -3 75 -9 105 -15 30 -5 73 -11 95 -14 50 -6 124 -16 150
-21 10 -2 37 -6 60 -9 22 -4 51 -8 65 -10 96 -15 159 -26 180 -30 61 -11 219
-37 255 -42 22 -3 79 -13 128 -22 125 -25 95 -8 -63 34 -163 43 -138 37 -290
75 -69 17 -141 35 -160 40 -19 5 -60 14 -90 20 -30 7 -62 14 -70 17 -8 3 -26
8 -40 10 -24 3 -44 7 -150 32 -25 6 -81 18 -125 27 -44 8 -89 18 -100 20 -11
2 -32 6 -47 9 -15 3 -73 14 -128 25 -110 22 -149 29 -195 37 -16 2 -39 6 -50
8 -80 14 -388 65 -420 70 -74 12 -85 14 -280 40 -23 3 -51 7 -62 9 -12 3 -46
7 -75 10 -108 12 -228 27 -252 32 -12 2 -48 6 -81 9 -33 3 -82 8 -110 10 -27
3 -70 7 -95 10 -25 2 -67 6 -95 10 -67 8 -144 14 -240 21 -44 3 -102 7 -130 9
-27 2 -93 7 -145 10 -52 3 -124 7 -160 10 -500 30 -1404 26 -1885 -10 -38 -3
-97 -7 -130 -10 -141 -10 -212 -16 -240 -20 -16 -3 -52 -7 -80 -10 -129 -11
-182 -17 -205 -21 -14 -2 -45 -7 -70 -9 -79 -9 -124 -15 -145 -19 -11 -2 -42
-7 -70 -10 -131 -18 -223 -31 -275 -41 -14 -3 -38 -7 -55 -10 -16 -3 -41 -7
-55 -10 -14 -3 -38 -8 -55 -9 -26 -4 -262 -48 -320 -60 -11 -3 -60 -14 -110
-25 -49 -11 -101 -22 -115 -25 -14 -3 -61 -14 -105 -25 -44 -11 -91 -22 -105
-25 -14 -2 -50 -12 -80 -22 -30 -9 -64 -18 -75 -19 -11 -1 -27 -5 -35 -8 -16
-7 -102 -29 -110 -29 -3 0 -12 -3 -20 -8 -8 -4 -28 -10 -44 -14 -25 -6 -22 -1
25 35 192 150 378 330 530 513 13 16 30 34 37 42 6 7 12 17 12 22 0 6 4 12 9
14 8 3 142 190 170 239 8 13 31 51 51 84 175 286 333 703 385 1015 3 19 8 42
10 50 2 8 7 38 10 65 4 28 8 61 11 75 9 62 15 135 11 130 -3 -3 -7 -18 -10
-35 -3 -16 -10 -50 -17 -75 -7 -25 -13 -52 -15 -60 -11 -55 -72 -250 -95 -305
-5 -11 -21 -49 -35 -85 -28 -68 -119 -257 -158 -325 -50 -88 -81 -140 -88
-145 -3 -3 -12 -16 -19 -29 -7 -14 -17 -30 -21 -35 -5 -6 -30 -40 -55 -75 -53
-74 -46 -65 -116 -151 -171 -212 -385 -406 -639 -582 -61 -42 -304 -188 -314
-188 -2 0 -51 -23 -108 -50 -57 -28 -108 -50 -113 -50 -5 -1 -27 -9 -49 -20
-22 -11 -47 -19 -56 -20 -8 0 -19 -4 -25 -8 -8 -8 -180 -65 -186 -62 -2 1 -15
-3 -31 -9 -15 -6 -38 -13 -50 -15 -12 -3 -31 -7 -42 -10 -11 -2 -51 -11 -90
-19 -85 -18 -127 -26 -245 -42 -189 -26 -537 -25 -750 1 -50 6 -106 14 -130
19 -14 3 -41 8 -60 11 -19 3 -89 19 -155 35 -66 17 -127 32 -135 34 -8 2 -16
4 -17 5 -2 2 -7 3 -12 4 -5 0 -13 4 -17 9 -4 4 -17 7 -29 7 -11 0 -25 4 -31 8
-5 5 -29 15 -54 22 -25 8 -61 21 -80 29 -19 8 -41 16 -48 17 -12 2 -314 152
-357 177 -54 31 -181 112 -185 117 -3 4 -20 15 -37 25 -18 11 -33 23 -33 27 0
4 -5 8 -11 8 -6 0 -16 6 -23 13 -7 6 -28 23 -46 37 -147 109 -344 298 -463
443 -18 22 -44 53 -59 70 -15 18 -30 40 -34 50 -3 9 -9 17 -13 17 -7 0 -53 64
-86 119 -5 9 -13 18 -16 21 -14 11 -130 213 -177 305 -110 219 -222 532 -249
695 -7 40 -10 54 -16 70 -3 8 -10 51 -17 95 -6 44 -13 91 -15 105 -12 80 -27
312 -27 405 1 35 13 265 16 290 13 107 24 184 32 225 3 14 7 39 10 55 3 17 9
44 14 60 5 17 12 46 15 65 7 42 11 58 65 225 23 72 47 136 52 143 6 6 8 12 5
12 -24 0 247 528 293 570 3 3 20 28 39 55 135 196 407 492 562 610 185 142
275 205 289 205 4 0 13 7 20 15 7 8 11 15 9 15 -2 0 -49 -23 -104 -51z"/>
<path d="M13527 12134 c-1 -1 -42 -5 -92 -8 -49 -4 -99 -9 -110 -12 -11 -2
-36 -6 -55 -9 -19 -2 -46 -7 -60 -10 -14 -3 -38 -7 -55 -9 -41 -7 -166 -42
-250 -72 -498 -178 -837 -546 -921 -1001 -2 -13 -7 -35 -10 -50 -10 -51 -12
-312 -2 -355 5 -24 11 -55 13 -70 11 -86 96 -264 176 -371 57 -75 171 -192
240 -247 24 -19 46 -38 47 -42 2 -4 9 -8 17 -8 7 0 18 -7 25 -15 16 -19 271
-185 285 -185 7 0 266 -146 315 -178 244 -160 332 -297 317 -494 -6 -71 -14
-99 -51 -177 -16 -35 -116 -141 -132 -141 -8 0 -14 -4 -14 -8 0 -14 -140 -79
-205 -96 -93 -24 -149 -30 -285 -29 -263 0 -484 44 -755 152 -40 16 -141 67
-178 89 -22 13 -42 21 -45 18 -3 -4 -72 -169 -153 -367 -141 -343 -147 -362
-131 -379 17 -18 209 -121 247 -133 11 -3 54 -18 95 -32 68 -23 196 -57 260
-69 33 -6 119 -23 125 -25 3 0 6 -1 8 -2 1 0 18 -2 37 -3 19 -2 69 -7 110 -12
41 -5 174 -9 295 -8 260 0 338 6 515 43 410 86 731 268 945 536 22 28 43 52
48 53 4 2 7 10 7 17 0 8 6 20 14 28 25 24 102 179 129 259 56 162 76 284 76
468 0 126 0 127 -11 185 -5 28 -11 59 -12 70 -2 11 -15 54 -29 95 -39 118
-108 235 -200 344 -43 50 -73 80 -161 161 -24 22 -164 124 -217 158 -59 37
-81 50 -224 129 -366 203 -503 313 -572 458 -61 128 -20 291 102 413 29 28
122 87 138 87 7 0 17 4 23 9 10 10 94 37 139 46 134 26 331 25 495 -1 141 -22
300 -70 426 -128 42 -20 79 -34 81 -32 2 2 26 64 54 137 27 74 54 143 59 154
5 11 20 52 34 90 14 39 36 99 49 135 98 261 98 232 7 272 -153 69 -366 130
-499 144 -19 2 -48 5 -65 8 -77 12 -448 29 -459 20z"/>
<path d="M5650 12053 c0 -7 25 -88 56 -180 31 -92 57 -172 59 -178 1 -5 5 -17
8 -25 8 -22 61 -183 63 -195 1 -5 12 -36 23 -67 11 -32 17 -58 14 -58 -3 0 -1
-6 5 -12 7 -10 60 -163 77 -228 1 -3 4 -12 8 -20 6 -17 168 -510 171 -525 2
-5 6 -17 9 -25 3 -8 37 -112 76 -230 39 -118 110 -336 158 -483 l88 -269 -22
-111 c-24 -124 -33 -172 -38 -202 -1 -11 -3 -20 -5 -20 -1 0 -3 -9 -4 -20 -3
-22 -16 -98 -22 -130 -2 -11 -6 -31 -9 -45 -6 -31 -13 -68 -20 -100 -3 -14 -8
-45 -11 -70 -3 -25 -8 -48 -10 -51 -2 -3 -6 -21 -9 -40 -3 -19 -12 -68 -20
-109 -8 -41 -17 -91 -20 -110 -4 -19 -10 -53 -15 -75 -5 -22 -12 -60 -15 -85
-4 -24 -8 -47 -10 -50 -2 -3 -6 -23 -9 -45 -4 -22 -8 -47 -11 -55 -2 -8 -6
-31 -9 -50 -3 -19 -8 -46 -11 -60 -3 -14 -8 -38 -10 -55 -3 -16 -8 -37 -10
-45 -2 -8 -7 -31 -10 -50 -3 -19 -8 -47 -10 -62 -3 -16 -7 -42 -10 -59 -5 -26
-3 -30 12 -25 10 3 38 8 63 11 55 8 97 14 130 20 14 2 45 7 70 10 25 4 88 13
140 21 52 9 111 17 130 20 19 2 73 11 120 19 47 8 106 17 132 20 26 4 60 10
75 14 29 8 30 13 67 201 3 14 12 57 21 95 8 39 17 84 20 100 6 41 15 87 21
107 5 18 13 51 20 88 2 14 7 39 11 55 3 17 7 37 9 45 1 13 48 235 60 285 2 11
7 34 9 50 3 17 8 37 10 45 2 8 7 29 10 47 3 17 16 84 30 148 14 64 27 126 29
138 3 12 5 24 6 27 1 3 3 10 5 15 1 6 3 12 4 15 1 3 4 21 6 40 7 82 28 119
220 380 107 146 198 270 203 275 4 6 21 28 37 50 17 22 34 44 38 50 4 5 91
125 193 265 103 140 193 260 201 267 8 6 13 13 12 15 -3 3 54 83 141 199 19
26 42 57 50 69 8 11 51 69 95 128 l80 107 665 -1 c366 -1 670 -2 677 -3 8 -1
9 -10 3 -33 -5 -18 -12 -49 -15 -68 -3 -19 -21 -110 -40 -202 -19 -92 -37
-180 -40 -195 -3 -16 -7 -39 -10 -53 -3 -14 -9 -47 -15 -75 -5 -27 -12 -61
-15 -75 -3 -14 -8 -38 -11 -55 -3 -16 -9 -48 -14 -70 -5 -22 -11 -53 -14 -70
-3 -16 -10 -52 -16 -80 -6 -27 -13 -63 -16 -80 -4 -25 -77 -385 -90 -450 -2
-11 -7 -33 -10 -50 -3 -16 -12 -64 -20 -105 -9 -41 -17 -86 -19 -100 -2 -14
-4 -25 -5 -25 -1 0 -3 -9 -5 -20 -3 -11 -34 -168 -71 -350 -36 -181 -68 -341
-70 -355 -3 -14 -12 -59 -20 -100 -26 -126 -42 -205 -48 -240 -2 -14 -7 -36
-10 -50 -3 -14 -8 -37 -11 -52 -3 -16 -7 -38 -10 -50 -3 -13 -7 -34 -10 -48
-2 -14 -9 -47 -15 -75 -20 -101 -20 -105 -2 -106 9 0 40 -2 67 -4 28 -2 86 -6
130 -10 44 -3 100 -8 125 -10 47 -5 169 -14 255 -20 28 -1 93 -6 145 -10 171
-14 163 -15 172 25 4 19 9 49 12 65 3 17 8 41 11 55 4 14 7 34 9 45 2 11 6 34
9 50 4 17 9 44 12 60 2 17 27 143 55 280 28 138 53 266 56 285 3 19 7 41 10
49 2 8 7 30 10 50 3 20 17 90 31 156 13 66 26 131 28 145 2 14 20 108 40 210
21 102 39 194 41 205 2 11 8 45 14 75 6 30 12 65 15 78 13 57 19 90 30 145 9
46 15 79 30 157 8 41 17 87 19 103 3 15 7 35 10 45 3 9 7 33 10 52 3 19 14 78
25 130 11 52 23 111 26 130 8 42 11 59 24 125 6 28 13 64 16 80 3 17 8 41 11
55 3 14 8 36 10 50 3 14 10 50 16 80 6 30 12 60 13 65 1 9 17 93 20 105 1 3 5
28 10 55 5 28 10 53 11 58 1 4 2 10 3 15 0 4 213 7 472 7 l471 0 22 65 c73
217 296 472 588 675 32 22 58 42 58 45 0 3 -982 5 -2182 5 l-2181 0 -33 -45
c-19 -25 -41 -60 -49 -77 -9 -18 -20 -33 -25 -33 -6 0 -10 -5 -10 -11 0 -6
-20 -40 -45 -76 -25 -35 -45 -68 -45 -73 0 -6 -4 -10 -9 -10 -5 0 -14 -13 -21
-30 -7 -16 -16 -30 -21 -30 -5 0 -9 -4 -9 -9 0 -4 -36 -63 -80 -129 -44 -67
-80 -124 -80 -127 0 -4 -6 -13 -12 -20 -30 -33 -38 -45 -38 -54 0 -5 -6 -16
-14 -24 -8 -7 -29 -38 -47 -68 -18 -30 -39 -60 -46 -67 -7 -7 -13 -17 -13 -22
0 -5 -6 -15 -12 -22 -7 -7 -19 -25 -27 -40 -8 -15 -22 -37 -33 -47 -10 -11
-18 -24 -18 -29 0 -4 -7 -17 -15 -27 -29 -37 -165 -247 -165 -255 0 -5 -3 -10
-8 -12 -4 -2 -45 -61 -91 -133 -46 -71 -90 -136 -96 -143 -12 -13 -20 11 -50
138 -2 8 -13 47 -25 85 -11 39 -22 79 -25 90 -2 11 -16 61 -30 110 -14 50 -27
99 -30 110 -2 11 -16 61 -30 110 -14 50 -27 99 -30 110 -2 11 -9 36 -15 55 -6
19 -13 44 -15 55 -3 11 -32 119 -66 240 -33 121 -62 227 -63 235 -1 8 -5 22
-9 30 -3 8 -18 60 -32 115 -14 55 -28 107 -30 115 -4 13 -65 15 -485 15 -373
0 -480 -3 -480 -12z"/>
<path d="M2115 12010 c-143 -31 -184 -50 -310 -136 -53 -37 -175 -155 -175
-170 0 -3 -11 -20 -24 -37 -45 -60 -96 -178 -111 -258 -2 -9 -7 -32 -12 -50
-16 -60 -7 -246 16 -334 62 -232 231 -432 451 -532 120 -55 300 -78 445 -58
73 10 59 7 125 29 293 99 503 347 547 646 30 205 -31 446 -152 598 -31 39
-127 135 -162 163 -29 23 -163 94 -208 110 -46 16 -61 21 -85 25 -14 2 -36 7
-50 10 -59 15 -217 11 -295 -6z"/>
<path d="M3140 10244 c-80 -29 -131 -73 -170 -146 -17 -32 -23 -53 -34 -127
-2 -8 1 -37 6 -65 17 -91 78 -171 168 -218 37 -19 60 -23 130 -23 75 0 91 4
138 30 30 16 72 51 95 79 23 27 41 50 39 50 -2 1 2 15 9 31 7 17 13 66 13 110
0 67 -4 88 -26 131 -70 135 -229 199 -368 148z"/>
<path d="M1948 9966 c-1 -2 -32 -6 -68 -9 -36 -4 -76 -9 -90 -12 -14 -3 -35
-8 -48 -11 -150 -31 -355 -176 -453 -319 -66 -98 -121 -239 -134 -350 -8 -62
-7 -191 0 -225 4 -14 9 -38 12 -55 2 -16 18 -64 34 -105 110 -286 357 -479
659 -516 273 -32 529 75 720 302 55 65 119 196 146 294 18 68 26 287 11 345
-4 17 -9 39 -11 50 -44 207 -214 419 -422 523 -93 46 -153 63 -279 78 -27 3
-55 7 -62 9 -6 2 -13 2 -15 1z"/>
<path d="M15350 9835 c-4 -5 -10 -23 -13 -40 -3 -16 -19 -97 -37 -180 -17 -82
-34 -163 -37 -180 -2 -16 -14 -70 -25 -120 -11 -49 -21 -99 -23 -110 -8 -41
-18 -90 -30 -145 -8 -35 -11 -48 -40 -190 -15 -69 -28 -134 -31 -145 -2 -11
-7 -33 -9 -50 -3 -16 -8 -37 -10 -45 -2 -8 -6 -26 -9 -40 -4 -23 -18 -95 -22
-112 -1 -5 -2 -9 -3 -10 -2 -2 -5 -16 -7 -33 -11 -62 -12 -70 -14 -70 -2 0 -5
-17 -13 -60 -3 -16 -12 -62 -21 -100 -8 -39 -18 -84 -21 -100 -3 -17 -8 -39
-10 -50 -23 -108 -43 -210 -41 -212 3 -3 46 -3 176 -2 25 0 51 0 58 0 90 -3
125 -2 132 5 4 5 16 54 26 109 10 55 19 107 21 115 1 8 5 29 7 45 3 17 9 50
15 75 5 25 13 61 16 80 12 69 15 86 30 160 2 14 7 39 10 55 4 28 7 41 20 105
5 26 11 59 20 108 3 15 9 47 15 72 9 46 46 242 54 293 3 15 7 35 10 45 3 9 7
33 10 52 3 19 8 46 11 60 3 14 10 51 15 82 40 215 40 214 45 93 2 -58 11 -256
20 -440 2 -49 7 -153 10 -230 3 -77 8 -187 11 -245 3 -58 7 -161 10 -230 2
-69 7 -186 10 -260 2 -74 9 -139 13 -143 7 -7 144 -11 178 -6 5 1 10 1 13 0
14 -6 110 -5 110 0 0 4 18 3 40 -1 l40 -7 61 126 c33 69 70 149 82 176 12 28
27 56 34 63 7 7 13 18 13 23 0 5 23 57 51 117 111 234 218 457 297 622 108
225 189 397 212 448 13 28 28 52 32 52 5 0 7 -4 4 -8 -3 -5 -7 -19 -10 -33 -3
-13 -10 -44 -17 -69 -6 -25 -12 -52 -14 -60 -2 -8 -8 -35 -15 -60 -7 -25 -14
-55 -16 -68 -3 -12 -14 -62 -25 -110 -12 -48 -22 -94 -24 -103 -2 -9 -8 -33
-13 -55 -17 -62 -51 -206 -56 -234 -3 -14 -12 -49 -20 -78 -8 -29 -15 -56 -15
-60 -4 -29 -15 -79 -19 -87 -3 -5 -7 -16 -8 -25 -2 -14 -29 -134 -38 -170 -7
-27 -28 -114 -32 -139 -3 -14 -7 -28 -9 -32 -3 -4 -7 -24 -11 -45 -3 -22 -11
-48 -17 -59 -6 -11 -9 -21 -8 -23 3 -2 -7 -54 -15 -85 -5 -14 0 -17 23 -15 16
1 34 -1 41 -6 7 -4 12 -2 12 4 0 6 4 9 9 5 13 -7 129 -10 136 -3 3 3 22 2 41
-2 19 -4 36 -5 39 -1 2 4 17 6 33 3 31 -4 41 4 48 41 4 21 6 30 19 90 3 12 7
33 10 47 5 30 21 105 29 140 9 40 16 73 21 100 2 14 9 45 15 70 5 25 12 56 14
70 2 14 9 45 15 70 5 25 13 61 16 80 3 19 8 43 11 52 3 9 7 27 10 40 2 13 7
37 10 53 4 17 8 40 9 52 2 12 5 26 8 30 3 5 8 26 11 48 4 22 27 135 52 250 25
116 47 219 48 230 2 11 8 45 15 75 6 30 13 64 15 75 3 11 16 74 30 140 14 66
28 134 30 150 3 17 10 45 15 63 5 17 7 33 3 33 -4 1 -138 2 -299 3 l-291 1
-100 -205 c-246 -503 -282 -579 -282 -589 0 -6 -4 -11 -10 -11 -5 0 -10 -5
-10 -10 0 -6 -37 -86 -82 -178 -45 -92 -81 -170 -80 -174 1 -3 -5 -12 -13 -18
-8 -7 -15 -16 -15 -21 0 -14 -81 -179 -88 -179 -4 0 -8 30 -9 68 -1 61 -6 169
-18 437 -9 212 -17 383 -20 460 -11 270 -16 382 -19 400 -3 19 -11 20 -290 20
-181 0 -291 -4 -296 -10z"/>
<path d="M17460 9836 c0 -5 11 -29 25 -53 14 -23 23 -43 19 -43 -3 0 -2 -6 4
-13 10 -12 442 -864 442 -871 0 -2 -9 -14 -21 -27 -73 -85 -117 -135 -134
-155 -11 -12 -41 -46 -67 -75 -25 -30 -56 -65 -68 -79 -12 -14 -43 -49 -68
-79 -26 -29 -52 -59 -58 -65 -5 -6 -43 -49 -83 -96 -40 -47 -99 -114 -131
-150 -32 -36 -100 -114 -153 -175 -93 -108 -95 -110 -69 -116 15 -3 34 -2 42
1 8 4 26 4 40 0 14 -3 40 -3 58 1 17 4 34 3 37 -1 2 -4 23 -4 45 0 22 4 40 4
40 0 0 -4 18 -4 40 0 22 4 40 4 40 0 0 -4 18 -4 40 0 22 4 40 4 40 0 0 -8 64
3 90 14 8 4 35 32 60 62 25 30 59 70 75 87 17 18 57 64 90 102 33 39 65 75 71
80 10 9 88 101 130 154 10 13 24 28 29 35 6 6 27 33 48 60 l37 49 21 -49 c55
-128 272 -571 287 -586 10 -10 182 -16 182 -7 0 3 19 3 43 0 23 -4 61 -4 85
-1 23 4 44 4 47 2 9 -9 100 -5 100 4 -1 14 -159 319 -177 342 -6 6 -8 12 -5
12 3 0 -9 26 -26 58 -18 31 -52 98 -77 147 -25 50 -47 92 -50 95 -3 3 -21 37
-40 75 -19 39 -51 101 -72 139 -22 40 -35 74 -30 81 6 11 60 74 117 139 6 6
37 42 70 81 33 38 67 76 75 85 8 10 38 44 66 76 28 32 84 97 125 144 41 47
101 116 134 155 33 38 72 83 87 100 14 16 36 41 48 55 52 60 126 145 142 161
9 10 21 26 26 36 10 18 0 18 -244 18 l-255 0 -32 -36 c-18 -19 -54 -61 -82
-93 -27 -32 -68 -77 -90 -101 -38 -41 -67 -74 -165 -189 -23 -27 -47 -54 -53
-61 -7 -7 -47 -56 -91 -109 -43 -53 -80 -96 -83 -96 -5 0 -95 189 -91 192 2 2
-3 10 -10 18 -7 8 -60 110 -118 225 -59 116 -113 219 -120 230 -13 19 -26 20
-224 20 -122 0 -210 -4 -210 -9z"/>
<path d="M3988 9415 c-2 -2 -28 -5 -58 -8 -30 -3 -68 -11 -85 -17 -16 -6 -32
-11 -35 -11 -12 2 -79 -24 -130 -50 -302 -152 -478 -481 -435 -814 11 -85 45
-199 77 -257 37 -67 74 -124 85 -131 7 -4 13 -12 13 -17 0 -5 21 -30 48 -56
189 -188 434 -268 702 -230 30 4 58 10 62 13 5 2 18 6 30 9 32 7 39 9 73 23
62 24 165 84 201 116 6 6 28 26 50 45 74 67 193 238 177 254 -4 3 -2 6 4 6 8
0 49 114 60 170 3 16 15 149 15 165 -1 28 -14 140 -17 145 -2 4 -7 22 -10 40
-9 49 -53 155 -89 216 -139 229 -387 376 -654 388 -45 2 -83 2 -84 1z"/>
<path d="M14242 8203 c-6 -10 -12 -34 -15 -53 -3 -19 -12 -67 -21 -105 -8 -39
-18 -84 -21 -100 -3 -17 -8 -41 -11 -54 -3 -13 -6 -29 -7 -35 -2 -13 27 -16
163 -15 58 0 112 0 120 0 36 -2 95 0 99 5 5 5 6 9 16 59 3 17 8 41 11 55 7 29
12 55 19 90 3 14 7 36 11 50 3 14 7 34 9 45 2 11 4 20 5 20 1 0 4 12 6 27 l4
27 -189 1 c-172 0 -191 -1 -199 -17z"/>
</g>
</svg>
